<svg width="18" height="18" viewBox="0 0 18 18" fill="none" xmlns="http://www.w3.org/2000/svg">
<path d="M13.1539 1.24857e-07C11.6246 1.09535e-07 10.3847 1.24131 10.3847 2.76923C10.3847 4.61423 12.8078 7.13492 12.8078 9.67085L13.5001 9.67085C13.5008 7.13492 15.9232 4.68692 15.9232 2.76923C15.9232 1.24131 14.6832 1.4018e-07 13.1539 1.24857e-07ZM13.1539 1.34169C13.3415 1.34178 13.5272 1.37882 13.7004 1.45068C13.8737 1.52253 14.0311 1.62781 14.1636 1.7605C14.2962 1.89319 14.4013 2.05069 14.473 2.224C14.5447 2.39732 14.5816 2.58306 14.5815 2.77062C14.5814 2.95817 14.5443 3.14388 14.4725 3.31712C14.4006 3.49037 14.2953 3.64777 14.1627 3.78032C14.03 3.91288 13.8725 4.01801 13.6992 4.0897C13.5258 4.16139 13.3401 4.19825 13.1525 4.19815C12.7737 4.19797 12.4104 4.04728 12.1426 3.77924C11.8748 3.5112 11.7245 3.14777 11.7247 2.76888C11.7248 2.39 11.8755 2.02671 12.1436 1.75893C12.4116 1.49115 12.775 1.34082 13.1539 1.341L13.1539 1.34169ZM9.00008 1.38462C4.41908 1.38462 0.692383 5.11131 0.692383 9.69231C0.692383 14.2733 4.41908 18 9.00008 18C13.5811 18 17.3078 14.2733 17.3078 9.69231C17.3078 8.30077 16.963 6.99508 16.3558 5.841C16.2638 6.02377 16.171 6.19754 16.0748 6.38238C15.8927 6.73408 15.7009 7.08923 15.5334 7.44231C15.7065 7.93731 15.8255 8.46069 15.8795 9L14.9712 9C14.9214 9.23192 14.8847 9.45 14.8847 9.67085L14.8847 10.3846L15.8802 10.3846C15.7863 11.3606 15.4836 12.3051 14.9927 13.1538L12.9601 13.1538C13.1124 12.5045 13.2003 11.7865 13.2626 11.0555L11.8988 11.0555C11.8342 11.7638 11.7115 12.4656 11.5318 13.1538L6.46831 13.1538C6.23433 12.2478 6.0965 11.3196 6.05707 10.3846L11.4225 10.3846L11.4225 9.67085C11.4171 9.44482 11.3881 9.21998 11.3359 9L6.05777 9C6.09719 8.06504 6.23503 7.13684 6.469 6.23077L10.1687 6.23077C9.92856 5.77731 9.70457 5.31548 9.49715 4.84615L6.94461 4.84615C7.51715 3.53977 8.27384 2.76923 9.00008 2.76923C9.00008 2.28808 9.08661 1.836 9.23823 1.40608C9.15861 1.40331 9.08038 1.38462 9.00008 1.38462ZM6.14431 3.39646C5.8686 3.85692 5.63681 4.34229 5.452 4.84615L4.06738 4.84615C4.66456 4.23921 5.36867 3.74774 6.14431 3.39646ZM3.00746 6.23077L5.04008 6.23077C4.83068 7.14022 4.7076 8.06741 4.67246 9L2.11992 9C2.21354 8.02391 2.51625 7.07943 3.00746 6.23077ZM2.11992 10.3846L4.67315 10.3846C4.714 11.3712 4.84138 12.3023 5.04077 13.1538L3.00746 13.1538C2.51684 12.3049 2.21418 11.3606 2.11992 10.3846ZM4.06738 14.5385L5.452 14.5385C5.65138 15.0757 5.88469 15.5582 6.14431 15.9882C5.36867 15.6369 4.66456 15.1454 4.06738 14.5385ZM6.94461 14.5385L11.0555 14.5385C10.483 15.8448 9.72631 16.6154 9.00008 16.6154C8.27384 16.6154 7.51646 15.8448 6.94461 14.5385ZM12.5482 14.5385L13.9328 14.5385C13.3356 15.1454 12.6315 15.6369 11.8558 15.9882C12.1155 15.5589 12.3488 15.0764 12.5482 14.5385Z" fill="black"/>
</svg>
