<svg width="131" height="117" viewBox="0 0 131 117" fill="none" xmlns="http://www.w3.org/2000/svg">
<path d="M130.107 31.6601C130.475 30.1629 130.234 28.5807 129.436 27.2615C128.637 25.9424 127.348 24.9945 125.85 24.6262C125.563 24.5554 125.276 24.5303 124.988 24.5037L125.017 24.3837L28.0606 0.535254L28.0519 0.5706C26.5547 0.202324 24.9725 0.443906 23.6534 1.2422C22.3342 2.04049 21.3863 3.33011 21.018 4.82735L0.990311 86.2504L1.05343 86.2659C0.678807 89.1605 2.50011 91.9393 5.40105 92.6528L5.39235 92.6882L102.349 116.537L102.378 116.417C102.645 116.526 102.911 116.637 103.2 116.708C106.102 117.422 109.004 115.807 110.015 113.067L110.114 113.092L130.141 31.6685L130.107 31.6601ZM99.3951 102.48L85.6845 99.1078C85.6861 98.9024 85.6618 98.6976 85.6122 98.4982L85.638 98.4912L69.1766 41.7624L69.1637 41.766C69.009 41.0311 68.6502 40.3547 68.1287 39.8144C67.6071 39.2741 66.9437 38.8917 66.2148 38.7112C65.4652 38.5278 64.6786 38.565 63.9496 38.8182C63.2206 39.0714 62.5804 39.5298 62.1059 40.1384L34.8891 68.5003L32.2065 59.2578L32.1992 59.26C32.1178 58.8725 31.9288 58.5157 31.6539 58.2307C31.379 57.9457 31.0293 57.744 30.645 57.6487C29.8131 57.4441 28.9772 57.7673 28.4805 58.3988L18.6515 68.6417L31.8843 14.8432L115.87 35.5012L99.3951 102.48Z" fill="#FFEEDA"/>
</svg>
