<svg width="13" height="17" viewBox="0 0 13 17" fill="none" xmlns="http://www.w3.org/2000/svg">
<path d="M12.8332 8.49998C12.8332 7.62677 12.123 6.91665 11.2498 6.91665H10.4582V4.54165C10.4582 2.35902 8.68246 0.583313 6.49984 0.583313C4.31721 0.583313 2.5415 2.35902 2.5415 4.54165V6.91665H1.74984C0.876629 6.91665 0.166504 7.62677 0.166504 8.49998V14.8333C0.166504 15.7065 0.876629 16.4166 1.74984 16.4166H11.2498C12.123 16.4166 12.8332 15.7065 12.8332 14.8333V8.49998ZM4.12484 4.54165C4.12484 3.23223 5.19042 2.16665 6.49984 2.16665C7.80925 2.16665 8.87484 3.23223 8.87484 4.54165V6.91665H4.12484V4.54165Z" fill="black"/>
</svg>
