<svg width="109" height="29" viewBox="0 0 109 29" fill="none" xmlns="http://www.w3.org/2000/svg">
<g clip-path="url(#clip0_519_200)">
<path d="M40.5757 7.13159H34.583C34.3846 7.13147 34.1927 7.20258 34.0419 7.33212C33.891 7.46167 33.7911 7.64112 33.7602 7.83815L31.3366 23.2881C31.3254 23.3598 31.3299 23.4331 31.3496 23.5029C31.3693 23.5727 31.4038 23.6374 31.4508 23.6925C31.4978 23.7475 31.5561 23.7918 31.6217 23.822C31.6872 23.8523 31.7586 23.8679 31.8308 23.8678H34.6917C34.8902 23.8679 35.0822 23.7967 35.2331 23.6669C35.384 23.5372 35.4838 23.3576 35.5145 23.1604L36.1682 18.9933C36.1989 18.7962 36.2985 18.6167 36.4492 18.487C36.5999 18.3573 36.7917 18.286 36.9901 18.2858H38.8871C42.8346 18.2858 45.1129 16.3653 45.7078 12.5594C45.976 10.8943 45.7192 9.58604 44.9437 8.66981C44.092 7.66371 42.5814 7.13159 40.5757 7.13159ZM41.267 12.7744C40.9393 14.9363 39.2963 14.9363 37.7077 14.9363H36.8034L37.4378 10.8987C37.4564 10.7806 37.5163 10.673 37.6067 10.5953C37.6972 10.5176 37.8122 10.475 37.9312 10.475H38.3456C39.4278 10.475 40.4486 10.475 40.9761 11.0952C41.2907 11.4652 41.3871 12.0149 41.267 12.7744ZM58.4887 12.7048H55.619C55.5001 12.7048 55.385 12.7474 55.2946 12.8251C55.2041 12.9028 55.1443 13.0104 55.1257 13.1285L54.9986 13.9355L54.798 13.643C54.1767 12.7365 52.7914 12.4334 51.4087 12.4334C48.2375 12.4334 45.5291 14.8482 45.0016 18.2356C44.7273 19.9254 45.1172 21.5411 46.0706 22.6679C46.9451 23.7039 48.1963 24.1356 49.6851 24.1356C52.2402 24.1356 53.6571 22.4838 53.6571 22.4838L53.5292 23.2855C53.5178 23.3572 53.522 23.4305 53.5415 23.5004C53.5609 23.5702 53.5953 23.6351 53.6421 23.6903C53.6889 23.7456 53.7471 23.79 53.8126 23.8205C53.8781 23.851 53.9494 23.8668 54.0216 23.8669H56.6065C56.805 23.867 56.9971 23.7958 57.1479 23.6661C57.2988 23.5363 57.3986 23.3567 57.4293 23.1595L58.9803 13.2844C58.9917 13.2129 58.9875 13.1398 58.9681 13.07C58.9486 13.0003 58.9143 12.9356 58.8676 12.8805C58.8209 12.8254 58.7628 12.7811 58.6974 12.7508C58.6319 12.7204 58.5607 12.7047 58.4887 12.7048ZM54.4887 18.3202C54.2118 19.9685 52.9105 21.0751 51.2509 21.0751C50.4176 21.0751 49.7517 20.8064 49.3241 20.2971C48.9 19.7915 48.7387 19.0717 48.8737 18.27C49.1322 16.6357 50.4553 15.4931 52.0895 15.4931C52.9044 15.4931 53.5668 15.7653 54.0032 16.2789C54.4405 16.7978 54.614 17.522 54.4887 18.3202ZM73.7721 12.7048H70.8884C70.7524 12.705 70.6185 12.7385 70.4984 12.8026C70.3782 12.8666 70.2754 12.9591 70.1988 13.0721L66.2215 18.9624L64.5357 13.3021C64.4839 13.1294 64.3783 12.9781 64.2343 12.8705C64.0904 12.763 63.9159 12.7048 63.7365 12.7048H60.9027C60.8232 12.7045 60.7448 12.7234 60.6739 12.7599C60.6031 12.7963 60.542 12.8492 60.4956 12.9142C60.4492 12.9791 60.419 13.0543 60.4073 13.1334C60.3957 13.2126 60.403 13.2933 60.4287 13.369L63.6051 22.741L60.6188 26.9795C60.5658 27.0546 60.5343 27.143 60.5279 27.2349C60.5214 27.3269 60.5403 27.4188 60.5824 27.5007C60.6244 27.5826 60.6881 27.6513 60.7664 27.6992C60.8447 27.7471 60.9346 27.7724 61.0263 27.7724H63.9065C64.041 27.7726 64.1735 27.74 64.2927 27.6773C64.4119 27.6147 64.5142 27.524 64.5909 27.4129L74.1822 13.4932C74.2342 13.4179 74.2647 13.3298 74.2704 13.2383C74.2761 13.1468 74.2567 13.0555 74.2145 12.9742C74.1723 12.893 74.1087 12.8249 74.0307 12.7774C73.9527 12.7299 73.8633 12.7048 73.7721 12.7048Z" fill="#253B80"/>
<path d="M83.32 7.1315H77.3265C77.1282 7.13158 76.9365 7.20279 76.7858 7.33231C76.6352 7.46184 76.5354 7.64117 76.5045 7.83805L74.0808 23.288C74.0696 23.3596 74.0739 23.4328 74.0934 23.5025C74.113 23.5722 74.1474 23.6369 74.1942 23.692C74.241 23.7471 74.2991 23.7913 74.3646 23.8217C74.43 23.852 74.5012 23.8677 74.5733 23.8677H77.6489C77.7877 23.8675 77.9218 23.8175 78.0272 23.7268C78.1325 23.636 78.2022 23.5104 78.2237 23.3726L78.9116 18.9932C78.9423 18.7961 79.0419 18.6166 79.1926 18.4869C79.3433 18.3572 79.5351 18.2859 79.7335 18.2857H81.6297C85.578 18.2857 87.8554 16.3652 88.4512 12.5593C88.7203 10.8942 88.4618 9.58594 87.6863 8.66971C86.8354 7.66362 85.3257 7.1315 83.32 7.1315ZM84.0113 12.7743C83.6845 14.9362 82.0415 14.9362 80.452 14.9362H79.5486L80.1839 10.8986C80.2021 10.7805 80.2618 10.6728 80.3521 10.5951C80.4424 10.5174 80.5574 10.4747 80.6763 10.4749H81.0908C82.1721 10.4749 83.1938 10.4749 83.7213 11.0951C84.0358 11.4651 84.1314 12.0148 84.0113 12.7743ZM101.232 12.7047H98.3642C98.2453 12.7043 98.1301 12.7469 98.0398 12.8247C97.9494 12.9024 97.8898 13.0102 97.8717 13.1284L97.7447 13.9354L97.5431 13.6429C96.9219 12.7364 95.5374 12.4333 94.1547 12.4333C90.9836 12.4333 88.276 14.8481 87.7485 18.2355C87.4751 19.9253 87.8633 21.541 88.8166 22.6678C89.6929 23.7039 90.9424 24.1355 92.4311 24.1355C94.9863 24.1355 96.4032 22.4837 96.4032 22.4837L96.2752 23.2854C96.2638 23.3572 96.268 23.4307 96.2876 23.5007C96.3072 23.5707 96.3417 23.6356 96.3887 23.6909C96.4357 23.7462 96.4941 23.7906 96.5598 23.8209C96.6256 23.8513 96.6971 23.867 96.7694 23.8668H99.3535C99.5518 23.8667 99.7436 23.7954 99.8943 23.6657C100.045 23.536 100.145 23.3564 100.175 23.1594L101.727 13.2843C101.738 13.2126 101.734 13.1393 101.714 13.0695C101.694 12.9997 101.659 12.9351 101.612 12.88C101.565 12.8249 101.507 12.7807 101.441 12.7505C101.376 12.7202 101.304 12.7046 101.232 12.7047ZM97.2321 18.3201C96.9569 19.9684 95.654 21.075 93.9944 21.075C93.1628 21.075 92.4951 20.8063 92.0675 20.2971C91.6434 19.7914 91.4839 19.0716 91.6171 18.2699C91.8774 16.6356 93.1987 15.493 94.8329 15.493C95.6478 15.493 96.3103 15.7652 96.7466 16.2788C97.1856 16.7977 97.3591 17.5219 97.2321 18.3201ZM104.615 7.55525L102.156 23.288C102.144 23.3596 102.149 23.4328 102.168 23.5025C102.188 23.5722 102.222 23.6369 102.269 23.692C102.316 23.7471 102.374 23.7913 102.439 23.8217C102.505 23.852 102.576 23.8677 102.648 23.8677H105.121C105.532 23.8677 105.881 23.5682 105.944 23.1603L108.369 7.71119C108.38 7.63958 108.376 7.56636 108.357 7.49658C108.337 7.42679 108.303 7.3621 108.256 7.30693C108.209 7.25177 108.151 7.20744 108.085 7.17701C108.02 7.14657 107.949 7.13074 107.877 7.13062H105.108C104.989 7.13104 104.874 7.174 104.784 7.25181C104.694 7.32962 104.634 7.43719 104.615 7.55525Z" fill="#179BD7"/>
<path d="M6.45027 26.8703L6.90855 23.9436L5.88772 23.9198H1.01318L4.40074 2.32403C4.41083 2.25805 4.44416 2.1979 4.49466 2.15456C4.54517 2.11122 4.60948 2.08757 4.67588 2.08793H12.895C15.6237 2.08793 17.5067 2.65881 18.4899 3.7856C18.9508 4.31419 19.2443 4.86658 19.3862 5.47446C19.5352 6.1123 19.5378 6.87436 19.3924 7.80381L19.3819 7.87164V8.46719L19.8428 8.72973C20.1946 8.90896 20.5109 9.15141 20.776 9.4451C21.1703 9.89705 21.4253 10.4715 21.533 11.1525C21.6443 11.8528 21.6075 12.6863 21.4253 13.6298C21.215 14.7152 20.875 15.6605 20.4158 16.434C20.0107 17.127 19.466 17.7271 18.8167 18.196C18.2068 18.6312 17.4822 18.9616 16.6629 19.173C15.869 19.3809 14.9639 19.4858 13.9711 19.4858H13.3314C12.874 19.4858 12.4298 19.6514 12.081 19.9483C11.7328 20.2484 11.5017 20.6629 11.4291 21.1182L11.3809 21.3817L10.5712 26.5399L10.5344 26.7293C10.5248 26.7892 10.5082 26.8192 10.4836 26.8394C10.4599 26.859 10.4302 26.8698 10.3995 26.8703H6.45027Z" fill="#253B80"/>
<path d="M20.28 7.94025C20.2555 8.09794 20.2274 8.25917 20.1959 8.42479C19.112 14.02 15.4037 15.9529 10.6676 15.9529H8.25618C7.67698 15.9529 7.18891 16.3758 7.09866 16.9502L5.86403 24.8227L5.51441 27.0543C5.50049 27.1428 5.5058 27.2333 5.53 27.3196C5.55419 27.4058 5.59669 27.4858 5.65457 27.5539C5.71245 27.6221 5.78433 27.6768 5.86527 27.7144C5.9462 27.7519 6.03427 27.7714 6.1234 27.7714H10.4003C10.9068 27.7714 11.337 27.4014 11.4168 26.8992L11.4588 26.6807L12.2641 21.5428L12.3158 21.2609C12.3947 20.7569 12.8258 20.3869 13.3323 20.3869H13.9719C18.1157 20.3869 21.3595 18.6954 22.3076 13.8006C22.7037 11.7558 22.4986 10.0485 21.4506 8.84767C21.1185 8.47621 20.7218 8.16871 20.28 7.94025Z" fill="#179BD7"/>
<path d="M19.1456 7.48565C18.7995 7.38499 18.4474 7.30643 18.0915 7.25043C17.3882 7.14175 16.6773 7.08961 15.9657 7.09449H9.52359C9.27842 7.0943 9.04127 7.1823 8.85501 7.34259C8.66875 7.50287 8.54567 7.72486 8.50802 7.96844L7.13758 16.6956L7.09814 16.9502C7.14084 16.6723 7.28102 16.4191 7.49333 16.2361C7.70564 16.0532 7.97606 15.9527 8.25566 15.9529H10.6671C15.4032 15.9529 19.1114 14.0191 20.1954 8.42479C20.2278 8.25916 20.2549 8.09794 20.2795 7.94024C19.9935 7.78944 19.6954 7.66302 19.3883 7.5623C19.3078 7.53545 19.2269 7.50989 19.1456 7.48565Z" fill="#222D65"/>
<path d="M8.50713 7.96843C8.54447 7.72479 8.66748 7.50269 8.85383 7.34249C9.04019 7.18229 9.27751 7.0946 9.5227 7.09537H15.9648C16.728 7.09537 17.4404 7.14559 18.0906 7.2513C18.5306 7.32083 18.9645 7.42481 19.3883 7.56229C19.7082 7.66889 20.0052 7.79488 20.2795 7.94024C20.6019 5.87255 20.2768 4.46472 19.1649 3.18993C17.939 1.78651 15.7265 1.18567 12.8954 1.18567H4.6762C4.09788 1.18567 3.60455 1.60855 3.51517 2.18383L0.0916911 24.0016C0.0757451 24.1029 0.081812 24.2065 0.109475 24.3052C0.137137 24.4039 0.185739 24.4954 0.251936 24.5734C0.318134 24.6515 0.400356 24.7142 0.492947 24.7572C0.585539 24.8002 0.686301 24.8226 0.788305 24.8227H5.86263L7.13669 16.6955L8.50713 7.96843Z" fill="#253B80"/>
</g>
<defs>
<clipPath id="clip0_519_200">
<rect width="108.435" height="29" rx="5.04348" fill="white"/>
</clipPath>
</defs>
</svg>
