<svg width="101" height="39" viewBox="0 0 101 39" fill="none" xmlns="http://www.w3.org/2000/svg">
<path d="M25.8629 3.39773C25.9867 6.47078 28.412 18.1977 28.412 18.1977C29.3032 20.5729 30.0706 18.1977 30.0706 18.1977C33.0048 8.56368 27.0085 2.98063 27.0085 2.98063C25.4778 2.00123 25.8629 3.39773 25.8629 3.39773ZM60.6785 1.72341C60.6785 1.72341 63.614 3.95708 60.6785 4.37566C60.6785 4.37566 49.7098 5.77142 41.5481 14.1512C41.5481 14.1512 29.3032 25.8759 24.7132 38.7222C24.7132 38.7222 23.1825 38.7222 23.6947 36.21C24.2043 33.697 27.2636 22.6658 40.9087 9.12451C40.9087 9.12451 54.0488 -4.00114 60.6785 1.72341Z" fill="#FF4600"/>
<path d="M4.87597 20.3112C5.36048 20.423 5.7956 20.4779 6.43441 20.4779C8.93617 20.4779 10.6218 18.7161 10.6218 16.4788C10.6218 14.4659 9.31987 13.7398 7.63555 13.7398C6.89321 13.7398 6.33155 13.7961 5.97425 13.9065L4.87597 20.3112ZM3.47113 11.5862C4.51867 11.3054 6.07711 11.1387 7.60916 11.1387C9.21904 11.1387 10.9047 11.501 12.028 12.4811C13.0241 13.3198 13.6115 14.5481 13.6115 16.2284C13.6115 18.4642 12.6404 20.2838 11.4143 21.3454C10.0358 22.5478 8.06729 23.1353 6.02433 23.1353C5.41056 23.1353 4.87597 23.0501 4.41581 22.9953L3.16391 30.1267H0.253418L3.47113 11.5862Z" fill="black"/>
<path d="M21.5019 18.8552C21.196 18.77 20.8136 18.7159 20.277 18.7159C17.5438 18.7159 15.398 22.1009 15.398 25.205C15.398 26.629 15.8832 27.8047 17.1865 27.8047C18.59 27.8047 20.277 25.9044 20.8644 22.4357L21.5019 18.8552ZM20.3021 30.1265C20.3021 29.3138 20.4036 28.2248 20.5071 27.0764H20.4557C19.2302 29.5672 17.5689 30.4332 15.9854 30.4332C13.7638 30.4332 12.3062 28.5315 12.3062 25.7918C12.3062 21.1496 15.2694 16.1993 21.0681 16.1993C22.4215 16.1993 23.8777 16.4786 24.8488 16.8142L23.5462 23.9174C23.1875 25.9303 22.9838 28.5041 23.0353 30.1265H20.3021Z" fill="black"/>
<path d="M41.754 24.7289C41.754 26.6003 42.648 27.9183 44.1807 27.9183C46.403 27.9183 47.885 24.5608 47.885 21.8485C47.885 20.449 47.2962 18.7154 45.5097 18.7154C43.1338 18.7154 41.754 22.1841 41.754 24.7289ZM50.9497 21.8218C50.9497 26.4625 48.0115 30.4327 43.7726 30.4327C40.6294 30.4327 38.6899 28.0561 38.6899 24.8112C38.6899 20.1986 41.6268 16.1995 45.867 16.1995C49.2126 16.1995 50.9497 18.8281 50.9497 21.8218Z" fill="black"/>
<path d="M51.5088 30.1265L53.1187 20.7296C53.4245 19.1071 53.6032 17.681 53.7568 16.5075H56.4149L56.1334 18.9404H56.1834C57.3318 17.1216 58.9166 16.1993 60.6537 16.1993C62.4409 16.1993 63.8207 17.375 63.8207 19.9472C63.8207 20.5614 63.7206 21.5119 63.592 22.1839L62.2359 30.1265H59.2476L60.5746 22.4358C60.6537 21.9327 60.7295 21.3452 60.7295 20.8133C60.7295 19.6665 60.3465 18.8552 59.1718 18.8552C57.8184 18.8552 56.0806 20.6444 55.5446 23.8345L54.4721 30.1265H51.5088Z" fill="black"/>
<path d="M71.7361 18.6322C69.8705 18.6322 68.6456 20.4495 68.2883 22.1008C71.3524 22.1282 73.3209 21.6808 73.3209 20.0316C73.3209 19.1648 72.6821 18.6322 71.7361 18.6322ZM74.5715 29.3426C73.3446 30.0413 71.686 30.4332 70.1777 30.4332C66.7326 30.4332 65.0713 28.1136 65.0713 24.7849C65.0713 20.6739 67.8282 16.1999 72.1198 16.1999C74.5715 16.1999 76.1299 17.7372 76.1299 20.0316C76.1299 23.5262 72.785 24.6442 67.9831 24.533C67.931 25.0079 68.0332 25.9303 68.3147 26.4622C68.8006 27.386 69.6918 27.8609 70.8686 27.8609C72.2748 27.8609 73.3967 27.469 74.2934 26.966L74.5715 29.3426Z" fill="black"/>
<path d="M83.305 18.6322C81.4413 18.6322 80.2145 20.4495 79.8572 22.1008C82.9213 22.1282 84.8898 21.6808 84.8898 20.0316C84.8898 19.1648 84.251 18.6322 83.305 18.6322ZM86.1404 29.3426C84.9155 30.0413 83.2549 30.4332 81.7492 30.4332C78.3014 30.4332 76.6401 28.1136 76.6401 24.7849C76.6401 20.6739 79.397 16.1999 83.6887 16.1999C86.1404 16.1999 87.7015 17.7372 87.7015 20.0316C87.7015 23.5262 84.3539 24.6442 79.552 24.533C79.4992 25.0079 79.6021 25.9303 79.8836 26.4622C80.3694 27.386 81.2627 27.8609 82.4374 27.8609C83.8436 27.8609 84.9656 27.469 85.8622 26.966L86.1404 29.3426Z" fill="black"/>
<path d="M87.8779 30.1265L89.3335 21.7364C89.6651 19.8072 89.8437 17.7099 89.9696 16.5075H92.5506C92.4741 17.4298 92.3983 18.3803 92.2697 19.3605H92.3455C93.1921 17.5417 94.5428 16.1993 96.2298 16.1993C96.4612 16.1993 96.6899 16.2282 96.895 16.2282L96.3062 19.416C96.1533 19.3872 95.9489 19.3872 95.7439 19.3872C93.6224 19.3872 92.2697 21.7364 91.7859 24.6442L90.8399 30.1265H87.8779Z" fill="black"/>
<path d="M99.1546 17.7533H99.3725C99.5958 17.7533 99.7433 17.6169 99.7433 17.411C99.7433 17.1791 99.5883 17.0776 99.365 17.0776C99.2622 17.0776 99.1891 17.0858 99.1546 17.0946V17.7533ZM98.9414 16.9317C99.0497 16.9102 99.2046 16.8946 99.3488 16.8946C99.5748 16.8946 99.725 16.945 99.8245 17.0428C99.9064 17.1221 99.9538 17.2458 99.9538 17.388C99.9538 17.6221 99.8191 17.7807 99.6459 17.8436V17.8525C99.7717 17.9 99.8455 18.0296 99.8874 18.2163C99.9402 18.4652 99.9795 18.6408 100.014 18.7112H99.7934C99.767 18.6564 99.7298 18.5045 99.6878 18.28C99.6377 18.0311 99.5464 17.9392 99.3542 17.9303H99.1546V18.7112H98.9414V16.9317Z" fill="black"/>
<path d="M99.4303 16.1997C98.6183 16.1997 97.9585 16.922 97.9585 17.811C97.9585 18.7 98.6183 19.4231 99.4303 19.4231C100.242 19.4231 100.902 18.7 100.902 17.811C100.902 16.922 100.242 16.1997 99.4303 16.1997ZM99.4303 16.4486C100.117 16.4486 100.673 17.0568 100.673 17.811C100.673 18.5644 100.117 19.1749 99.4303 19.1749C98.7421 19.1749 98.1845 18.5644 98.1845 17.811C98.1845 17.0568 98.7421 16.4486 99.4303 16.4486Z" fill="black"/>
</svg>
