<svg width="65" height="21" viewBox="0 0 65 21" fill="none" xmlns="http://www.w3.org/2000/svg">
<path d="M28.3032 20.3981H23.1528L26.3717 0.615691H31.5226L28.3032 20.3981ZM18.82 0.615691L13.9098 14.2222L13.3288 11.2922L13.3293 11.2932L11.5963 2.39687C11.5963 2.39687 11.3867 0.615691 9.15311 0.615691H1.03568L0.94043 0.950654C0.94043 0.950654 3.42276 1.46712 6.32789 3.21179L10.8025 20.3986H16.1688L24.363 0.615691H18.82ZM59.3304 20.3981H64.0596L59.9363 0.615162H55.7961C53.8842 0.615162 53.4185 2.08942 53.4185 2.08942L45.7371 20.3981H51.1061L52.1797 17.4596H58.7271L59.3304 20.3981ZM53.663 13.4004L56.3692 5.99733L57.8916 13.4004H53.663ZM46.1398 5.37291L46.8748 1.12475C46.8748 1.12475 44.6068 0.262207 42.2425 0.262207C39.6866 0.262207 33.6171 1.37928 33.6171 6.81119C33.6171 11.9219 40.7407 11.9854 40.7407 14.6699C40.7407 17.3543 34.351 16.8733 32.2423 15.1805L31.4766 19.6223C31.4766 19.6223 33.7763 20.7394 37.29 20.7394C40.8048 20.7394 46.107 18.9196 46.107 13.9666C46.107 8.82308 38.9193 8.34419 38.9193 6.10792C38.9199 3.87113 43.9358 4.15847 46.1398 5.37291Z" fill="#2566AF"/>
</svg>
